<svg xmlns="http://www.w3.org/2000/svg" fill="none" viewBox="0 0 1852 701">
  <path stroke="#b8c1b2" d="M929.93 137.38c238.07 37.8 449.79 95.9 599.65 159.27 74.93 31.7 134.36 64.7 173.89 97.11 39.55 32.45 59.02 64.19 54.39 93.38s-32.98 53.34-80.64 71.93c-47.62 18.59-114.35 31.56-195.41 38.48-162.12 13.85-381.43 3.53-619.5-34.27s-449.8-95.9-599.65-159.27c-74.93-31.7-134.36-64.7-173.89-97.11-39.55-32.45-59.02-64.2-54.39-93.38s32.98-53.34 80.64-71.93c47.62-18.59 114.35-31.56 195.41-38.48 162.12-13.85 381.43-3.53 619.5 34.27Z"/>
  <path stroke="#b8c1b2" d="M1427.95 118.82c12.26-8.65 28.59-10.37 47.73-5.98s41 14.87 64.23 30.55c46.45 31.37 98.26 83.47 144.4 148.87s77.83 131.69 91.8 185.97c6.98 27.15 9.53 51.26 7.24 70.76s-9.39 34.3-21.64 42.95-28.59 10.37-47.73 5.98-41-14.87-64.22-30.55c-46.46-31.37-98.27-83.47-144.41-148.87s-77.83-131.69-91.8-185.97c-6.98-27.15-9.52-51.27-7.24-70.76 2.29-19.5 9.39-34.31 21.64-42.95Z"/>
</svg>
