<svg xmlns="http://www.w3.org/2000/svg" xmlns:xlink="http://www.w3.org/1999/xlink" fill="none" viewBox="0 0 707 389">
  <g stroke="#cad1c6" clip-path="url(#a)">
    <path d="M395.48 295.02C339.95 323.62 286.7 343.7 245.49 353c-20.6 4.66-38.17 6.62-51.5 5.64-13.34-.99-22.26-4.92-25.84-11.87s-1.6-16.49 5.34-27.93c6.94-11.42 18.73-24.58 34.49-38.66 31.5-28.14 78.75-59.86 134.27-88.46s108.78-48.67 149.99-57.98c20.6-4.66 38.17-6.62 51.5-5.64 13.34.99 22.26 4.92 25.84 11.87s1.6 16.48-5.35 27.93c-6.93 11.42-18.72 24.58-34.48 38.66-31.5 28.14-78.75 59.86-134.27 88.46Z"/>
    <path d="M329.41 206.22C234.32 168.4 150.66 128.09 92.28 93.48c-29.2-17.31-52.05-33.19-66.85-46.6-7.4-6.7-12.77-12.78-15.9-18.09q-4.73-7.98-2.6-13.31 2.11-5.34 11.03-7.9c5.92-1.7 14-2.43 23.98-2.22 19.97.4 47.48 4.56 80.6 12.02 66.2 14.92 154.71 43.04 249.8 80.85s178.76 78.12 237.14 112.74c29.2 17.3 52.04 33.18 66.85 46.6 7.4 6.7 12.76 12.77 15.9 18.08q4.73 7.99 2.6 13.32-2.11 5.32-11.03 7.9c-5.92 1.7-14 2.43-23.98 2.22-19.97-.41-47.49-4.56-80.6-12.02-66.21-14.92-154.71-43.05-249.8-80.85Z"/>
  </g>
  <defs>
    <clipPath id="a">
      <path fill="#fff" d="M0 0h707v389H0z"/>
    </clipPath>
  </defs>
</svg>
