<svg xmlns="http://www.w3.org/2000/svg" xmlns:xlink="http://www.w3.org/1999/xlink" fill="none" viewBox="0 0 458 386">
  <g stroke="#cad1c6" clip-path="url(#a)">
    <path d="M261.48 164.06c29.36 50.17 50.28 98.9 60.37 137.1 5.04 19.1 7.37 35.54 6.7 48.2-.66 12.7-4.31 21.45-11.07 25.41s-16.18 2.86-27.58-2.78c-11.36-5.62-24.56-15.7-38.75-29.46-28.37-27.5-60.6-69.6-89.97-119.77s-50.28-98.9-60.37-137.1c-5.05-19.1-7.37-35.54-6.71-48.2.66-12.7 4.32-21.46 11.08-25.41 6.76-3.96 16.18-2.86 27.57 2.78 11.37 5.62 24.57 15.7 38.76 29.46 28.36 27.5 60.6 69.6 89.97 119.77Z"/>
    <path d="M224.04 141.96c-58.03 3.5-110.94.12-149.58-8.16-19.32-4.14-35.03-9.5-46.03-15.82-11.02-6.34-17.18-13.56-17.65-21.37s4.77-15.73 14.95-23.34c10.16-7.6 25.12-14.8 43.8-21.24 37.36-12.86 89.49-22.57 147.52-26.07s110.94-.12 149.57 8.16c19.32 4.15 35.04 9.5 46.04 15.83 11.02 6.33 17.17 13.55 17.65 21.37.47 7.81-4.78 15.72-14.95 23.33s-25.13 14.81-43.8 21.24c-37.37 12.86-89.49 22.57-147.52 26.07Z"/>
  </g>
  <defs>
    <clipPath id="a">
      <path fill="#fff" d="M0 0h458v386H0z"/>
    </clipPath>
  </defs>
</svg>
