<svg xmlns="http://www.w3.org/2000/svg" fill="none" viewBox="0 0 144 25">
  <path fill="#fff" d="M17.2 1.34q-.12 1.41-.18 2.72l-.04 2.02a22 22 0 0 0 .1 2.18h-.74a12 12 0 0 0-.99-3.68 4 4 0 0 0-1.76-1.92 5 5 0 0 0-2.5-.58H9.8q-.94 0-1.41.16a1 1 0 0 0-.64.64 5 5 0 0 0-.16 1.47V21a5 5 0 0 0 .16 1.47q.16.49.64.64t1.4.16h1.57q1.44 0 2.53-.6a5 5 0 0 0 1.89-2.15q.8-1.5 1.21-4.06h.74q-.1 1.02-.1 2.69 0 .73.04 2.08.03 1.34.19 2.78a95 95 0 0 0-3.68-.06l-3.65-.04H8.47q-1.25 0-2.69.04-1.44 0-2.9.03-1.48 0-2.8.03v-.64q1.04-.06 1.54-.26.52-.18.68-.76.19-.58.19-1.73V4.74q0-1.2-.2-1.73-.15-.58-.7-.77a4 4 0 0 0-1.5-.26v-.64l2.78.07q1.47 0 2.91.03h8.07q1.89-.03 3.36-.1M12.23 12.3v.64h-5.6v-.64zm.92-4.23a43 43 0 0 0-.12 2.79l.03 1.76a53 53 0 0 0 .19 4.54h-.74q-.15-1.12-.6-2.08a3.6 3.6 0 0 0-1.22-1.53q-.8-.6-2.08-.61v-.64q.96 0 1.63-.39.67-.41 1.09-1.05.45-.67.7-1.41t.39-1.38zm16.67-6.72v.64q-1.1.04-1.66.26-.55.19-.74.77-.2.54-.2 1.73v16.25q0 .99.14 1.47.16.49.57.64.45.16 1.31.16h1.57q1.09 0 2.05-.5a6 6 0 0 0 1.73-1.45q.76-.96 1.28-2.27.51-1.31.77-2.91h.73q-.1 1.08-.1 2.81l.04 2.15q.03 1.4.19 2.91a95 95 0 0 0-3.68-.06q-2.05-.04-3.65-.04h-2.05q-1.24 0-2.68.04-1.45 0-2.92.03-1.46 0-2.78.03v-.64q1.02-.06 1.54-.26.5-.18.67-.76.2-.58.19-1.73V4.74q0-1.2-.2-1.73-.15-.58-.7-.77a4 4 0 0 0-1.5-.26v-.64a139 139 0 0 0 10.08 0M50.27.9q3.39 0 5.92 1.37a9.6 9.6 0 0 1 3.97 3.97q1.4 2.56 1.4 6.24 0 3.58-1.44 6.27-1.44 2.7-4.03 4.2-2.56 1.5-5.85 1.5-3.4 0-5.96-1.38a9.7 9.7 0 0 1-3.93-3.97 13 13 0 0 1-1.41-6.24q0-3.59 1.44-6.27 1.47-2.69 4-4.19Q46.94.9 50.27.9m-.13.57q-1.8 0-3.14 1.44a10 10 0 0 0-2.04 3.97q-.7 2.53-.7 5.86 0 3.39.8 5.92a10 10 0 0 0 2.2 3.87 4.4 4.4 0 0 0 3.1 1.34q1.8 0 3.1-1.44a9.4 9.4 0 0 0 2.06-3.97q.73-2.55.73-5.85 0-3.43-.83-5.92a9 9 0 0 0-2.2-3.84 4.3 4.3 0 0 0-3.08-1.38m33.17-.13v.64q-.7.26-1.5 1.12-.78.87-1.45 2.7l-6.75 18.26-.54-.03h-1.12q-.3 0-.55.03L63.24 4.03a3.6 3.6 0 0 0-.99-1.57q-.54-.44-1.02-.48v-.64a273 273 0 0 0 4.86.1 111 111 0 0 0 4.87-.1v.64a5 5 0 0 0-1.6.26q-.58.19-.64.77-.07.54.38 1.66l5.82 14.82-.67.8 4.42-11.9q.85-2.4.9-3.78.03-1.38-.68-1.99a3 3 0 0 0-2.01-.64v-.64l2.04.07a59 59 0 0 0 3.27 0zM94.27.9q3.39 0 5.92 1.37a9.6 9.6 0 0 1 3.97 3.97q1.4 2.56 1.4 6.24 0 3.58-1.44 6.27-1.43 2.7-4.03 4.2-2.56 1.5-5.85 1.5-3.4 0-5.95-1.38a9.7 9.7 0 0 1-3.94-3.97 13 13 0 0 1-1.4-6.24q0-3.59 1.43-6.27 1.47-2.69 4-4.19Q90.94.9 94.27.9m-.13.57q-1.8 0-3.14 1.44a10 10 0 0 0-2.04 3.97q-.7 2.53-.7 5.86 0 3.39.8 5.92a10 10 0 0 0 2.2 3.87 4.4 4.4 0 0 0 3.1 1.34q1.8 0 3.1-1.44a9.4 9.4 0 0 0 2.06-3.97q.73-2.55.73-5.85 0-3.43-.83-5.92a9 9 0 0 0-2.2-3.84 4.3 4.3 0 0 0-3.08-1.38m31.1-.16v.64q-.72.3-1.45 1.15t-1.63 2.56l-6.05 11.97h-1.5l-7.49-13.85a4 4 0 0 0-1.06-1.44q-.45-.36-.8-.36v-.67q.87.1 1.76.13.94.03 2.02.03 1.4 0 3.04-.03l2.98-.13v.67q-.81 0-1.44.13-.64.13-.9.48-.26.33.13 1.06l5.05 9.73-.99 1.28 3.3-6.63q1.18-2.3 1.25-3.61.1-1.32-.64-1.86a3.2 3.2 0 0 0-2.02-.6V1.3l2.05.07a59 59 0 0 0 3.26 0zm-6.86 11.27v8.03q0 1.15.16 1.73.2.57.7.76.52.2 1.54.26V24q-.86-.06-2.24-.06a113 113 0 0 0-7.64.06v-.64q1.02-.06 1.53-.26.52-.18.67-.76.2-.58.2-1.73v-6.56l2.78 1.98zM143 1.34q-.12 1.41-.19 2.72l-.03 2.02a22 22 0 0 0 .1 2.18h-.74a12 12 0 0 0-1-3.68 4 4 0 0 0-1.75-1.92 5 5 0 0 0-2.5-.58h-1.31a5 5 0 0 0-1.4.16 1 1 0 0 0-.65.64q-.16.48-.16 1.47V21q0 .99.16 1.47.16.49.64.64t1.4.16h1.58q1.44 0 2.53-.6a5 5 0 0 0 1.88-2.15q.8-1.5 1.22-4.06h.73q-.1 1.02-.1 2.69l.04 2.08q.03 1.34.2 2.78a95 95 0 0 0-3.69-.06q-2.05-.04-3.64-.04h-2.05q-1.25 0-2.7.04-1.43 0-2.9.03-1.47 0-2.79.03v-.64q1.03-.06 1.54-.26.5-.18.67-.76.2-.58.2-1.73V4.74q0-1.2-.2-1.73-.16-.58-.7-.77a4 4 0 0 0-1.5-.26v-.64l2.78.07q1.47 0 2.9.03h8.07q1.89-.03 3.36-.1M138 12.3v.64h-5.6v-.64zm.93-4.23a43 43 0 0 0-.13 2.79l.03 1.76a54 54 0 0 0 .2 4.54h-.74q-.16-1.12-.6-2.08a3.6 3.6 0 0 0-1.22-1.53q-.8-.6-2.09-.61v-.64q.97 0 1.64-.39.66-.41 1.08-1.05.46-.67.7-1.41.26-.74.4-1.38z"/>
</svg>
