<svg xmlns="http://www.w3.org/2000/svg">
  <symbol id="cart" viewBox="0 0 17 16">
    <path fill="currentColor" d="M16.3 2.91H3.01L2.81.65a.7.7 0 0 0-.7-.65H.7a.7.7 0 0 0-.7.72c0 .4.31.71.7.71h.78l.8 9.19c.06.66.4 1.38 1 1.87C2.2 13.9 3.2 16 4.96 16c1.46 0 2.5-1.5 2-2.91h3.82A2.17 2.17 0 0 0 12.76 16c1.16 0 2.11-.98 2.11-2.17 0-1.2-.95-2.18-2.11-2.18h-7.8c-.53 0-1-.33-1.2-.8l11.16-.68a.7.7 0 0 0 .64-.54l1.42-5.83a.71.71 0 0 0-.68-.89ZM4.95 14.57a.73.73 0 0 1-.72-.74c0-.41.33-.74.72-.74.4 0 .72.33.72.74 0 .4-.32.74-.72.74Zm7.8 0a.73.73 0 0 1-.71-.74c0-.41.32-.74.72-.74.4 0 .72.33.72.74 0 .4-.33.74-.72.74Zm1.58-5.8-10.75.65-.45-5.07h12.28l-1.08 4.42Z"/>
  </symbol>
  <symbol id="angle" viewBox="0 0 11 6">
    <path fill="currentColor" d="M5.5 6 10.26.75H.74L5.5 6Z"/>
  </symbol>
</svg>