<svg xmlns="http://www.w3.org/2000/svg">
  <symbol id="arrow" viewBox="0 0 20 14">
    <path fill="currentColor" d="m13 0-1.41 1.41L16.17 6H0v2h16.17l-4.59 4.59L13 14l7-7z"/>
  </symbol>

  <symbol id="bicycle" viewBox="0 0 40 40">
    <path stroke="currentColor" d="M7.28 9.97h6.61m-1.65 3.97h15.7M33.71 6h-5.79v6.35c0 4.46.54 6.88 2.03 9.7.77 1.48 2.04 3 3.76 3m-20.65-11.1c-.17 3.88-.68 5.74-2 8.12-.8 1.46-2.07 2.99-3.79 2.99M9.76 33c-2.19 0-4.3-.84-5.84-2.33a7.8 7.8 0 0 1-2.42-5.61c0-2.1.87-4.13 2.42-5.62a8.4 8.4 0 0 1 5.84-2.32c2.2 0 4.3.83 5.84 2.32a7.8 7.8 0 0 1 2.42 5.62c0 2.1-.87 4.12-2.42 5.61A8.4 8.4 0 0 1 9.76 33Zm21.48 0c-2.2 0-4.3-.84-5.84-2.33a7.8 7.8 0 0 1-2.42-5.61c0-2.1.87-4.13 2.42-5.62a8.4 8.4 0 0 1 5.84-2.32c2.19 0 4.3.83 5.84 2.32a7.8 7.8 0 0 1 2.42 5.62c0 2.1-.87 4.12-2.42 5.61A8.4 8.4 0 0 1 31.24 33Z"/>
  </symbol>

  <symbol id="camera" viewBox="0 0 40 40">
    <path stroke="currentColor" stroke-linecap="round" stroke-linejoin="round" d="M20 14.1a7.08 7.08 0 1 1 0 14.17 7.08 7.08 0 0 1 0-14.17"/>
    <path stroke="currentColor" stroke-linecap="round" stroke-linejoin="round" d="M32.92 10.02h-6.67l-2.16-3.34H15.9l-2.16 3.34H7.08a3.33 3.33 0 0 0-3.33 3.33v15.67a3.33 3.33 0 0 0 3.33 3.33h25.84a3.33 3.33 0 0 0 3.33-3.33V13.35a3.33 3.33 0 0 0-3.33-3.33"/>
    <path stroke="currentColor" stroke-linecap="round" stroke-linejoin="round" d="M32.08 15.85a1.67 1.67 0 1 0 0-3.33 1.67 1.67 0 0 0 0 3.33"/>
  </symbol>

  <symbol id="facebook" viewBox="0 0 24 24">
    <path fill="currentColor" d="M22 12.06C22 6.5 17.52 2 12 2S2 6.5 2 12.06c0 5.02 3.66 9.19 8.44 9.94v-7.03H7.9v-2.91h2.54V9.84c0-2.52 1.49-3.91 3.77-3.91 1.1 0 2.24.2 2.24.2V8.6H15.2c-1.24 0-1.63.78-1.63 1.57v1.9h2.78l-.45 2.9h-2.33V22A10.04 10.04 0 0 0 22 12.06"/>
  </symbol>

  <symbol id="game" viewBox="0 0 40 40">
    <path stroke="currentColor" stroke-linecap="round" stroke-linejoin="round" d="M36.95 24.85 32.69 7.76 15.74 2.92 3.05 15.15l4.26 17.09 16.95 4.84z"/>
    <path stroke="currentColor" stroke-linecap="round" stroke-linejoin="round" d="m31.46 24.27 1.23-16.5-15.35 1.57-14.29 5.81 8.84 14 12.37 7.93z"/>
    <path stroke="currentColor" stroke-linecap="round" stroke-linejoin="round" d="m31.46 24.27-19.57 4.88m19.56-4.88L17.35 9.34l-5.46 19.81m19.56-4.88 5.5.58m-25.06 4.3-4.58 3.09m10.03-22.9-1.6-6.42"/>
  </symbol>

  <symbol id="horse" viewBox="0 0 40 40">
    <path stroke="currentColor" stroke-linecap="round" stroke-linejoin="round" d="M25.44 41c-10-11.11-3.33-17.78-3.33-17.78C24.16 28.7 31 27.67 31 27.67l3.94 3.02a1.97 1.97 0 0 0 2.66-.51l2.95-3.56a2.3 2.3 0 0 0-.15-2.92l-2.85-3.04a9.7 9.7 0 0 1-2.48-5.14 11 11 0 0 0-3.21-5.84l-1.97-2.01L32.1 1s-5.72.07-7.78 4.44C11 6.56 1 15.52 1 41"/>
  </symbol>

  <symbol id="instagram" viewBox="0 0 24 24">
    <path fill="currentColor" fill-rule="evenodd" d="M12 3c-2.44 0-2.75.01-3.71.05a7 7 0 0 0-2.19.42 4.4 4.4 0 0 0-1.59 1.04q-.7.69-1.04 1.6a7 7 0 0 0-.42 2.18C3.01 9.25 3 9.56 3 12c0 2.45.01 2.75.05 3.71.05.96.2 1.61.42 2.19q.35.9 1.04 1.59t1.6 1.04c.57.22 1.22.37 2.18.42S9.56 21 12 21s2.75-.01 3.71-.05a7 7 0 0 0 2.19-.42 4.4 4.4 0 0 0 1.59-1.04q.7-.69 1.04-1.6c.22-.57.37-1.22.42-2.18S21 14.44 21 12s-.01-2.75-.05-3.71a7 7 0 0 0-.42-2.19 4.4 4.4 0 0 0-1.04-1.59q-.69-.7-1.6-1.04a7 7 0 0 0-2.18-.42C14.75 3.01 14.44 3 12 3m0 1.62c2.4 0 2.69.01 3.64.05.87.04 1.35.19 1.67.31.42.17.72.36 1.03.68.32.31.51.61.68 1.03.12.32.27.8.3 1.67.05.95.06 1.24.06 3.64s-.01 2.69-.05 3.64a5 5 0 0 1-.31 1.67q-.23.59-.68 1.03-.44.45-1.03.68c-.32.12-.8.27-1.67.3-.95.05-1.24.06-3.64.06s-2.69-.01-3.64-.05a5 5 0 0 1-1.67-.31q-.59-.23-1.03-.68-.45-.44-.68-1.03c-.12-.32-.27-.8-.3-1.67-.05-.95-.06-1.24-.06-3.64s.01-2.69.05-3.64c.04-.87.19-1.35.31-1.67.17-.42.36-.72.68-1.03q.44-.45 1.03-.68c.32-.12.8-.27 1.67-.3.95-.05 1.24-.06 3.64-.06" clip-rule="evenodd"/>
    <path fill="currentColor" fill-rule="evenodd" d="M12 15a3 3 0 1 1 0-6 3 3 0 0 1 0 6m0-7.63a4.63 4.63 0 1 0 0 9.26 4.63 4.63 0 0 0 0-9.26m5.97-.08a1.1 1.1 0 1 1-2.18 0 1.1 1.1 0 0 1 2.18 0" clip-rule="evenodd"/>
  </symbol>

  <symbol id="party" viewBox="0 0 40 40">
    <path stroke="currentColor" stroke-linecap="round" stroke-linejoin="round" d="M9.8 27.51 6.1 39.64M1 38.28 11.2 41M4.42 17.52 11.08 1l12.56 3.35-3.65 17.32a7 7 0 0 1-1.3 2.89 8 8 0 0 1-2.43 2.15 8.5 8.5 0 0 1-6.48.83 8 8 0 0 1-2.95-1.45 8 8 0 0 1-2.08-2.45 7.2 7.2 0 0 1-.33-6.12"/>
    <path stroke="currentColor" stroke-linecap="round" stroke-linejoin="round" d="M26.39 27.02a8.6 8.6 0 0 0 9.05-1.18 7.5 7.5 0 0 0 2.44-3.85 7 7 0 0 0-.3-4.47L30.92 1l-1.98.52m3.26 26 3.7 12.12m5.1-1.36L30.8 41m3.45-31.73-5.74 1.55"/>
  </symbol>

  <symbol id="tree" viewBox="0 0 40 40">
    <path stroke="currentColor" stroke-linecap="round" stroke-linejoin="round" d="m21 32.75 20 .84-9.47-11.73 5.56.6-8.7-9.73 5.19.24L21 1 8.96 13.23l4.66-.5-9.1 9.72 5.95-.6L1 33.6zm0 0V41"/>
  </symbol>

  <symbol id="twitter" viewBox="0 0 24 24">
    <path fill="currentColor" d="m19.95 7.92.01.53c0 5.42-4.12 11.68-11.67 11.68-2.23 0-4.41-.64-6.29-1.85q.48.06.98.06c1.84 0 3.64-.62 5.1-1.76a4.1 4.1 0 0 1-3.84-2.85q.93.18 1.85-.07A4.1 4.1 0 0 1 2.8 9.64v-.05q.86.49 1.86.51A4.1 4.1 0 0 1 3.4 4.62a11.7 11.7 0 0 0 8.46 4.29 4.1 4.1 0 0 1 7-3.74q1.38-.28 2.6-1c-.3.95-.95 1.76-1.8 2.27Q20.85 6.3 22 5.8a8 8 0 0 1-2.05 2.13"/>
  </symbol>
</svg>
