<svg xmlns="http://www.w3.org/2000/svg" version="1.1" xmlns:xlink="http://www.w3.org/1999/xlink" width="70" height="70"><svg width="70" height="70" viewBox="0 0 70 70" fill="none" xmlns="http://www.w3.org/2000/svg">
<rect width="70" height="70" fill="#464D43"></rect>
<path d="M51.788 11.856C51.6067 13.4427 51.4707 14.984 51.38 16.48C51.3347 17.976 51.312 19.1093 51.312 19.88C51.312 20.696 51.3347 21.4893 51.38 22.26C51.4253 22.9853 51.4707 23.5973 51.516 24.096H49.952C49.68 21.4213 49.2947 19.3133 48.796 17.772C48.2973 16.1853 47.436 15.0747 46.212 14.44C45.0333 13.76 43.2427 13.42 40.84 13.42H35.196C33.6547 13.42 32.476 13.556 31.66 13.828C30.8893 14.0547 30.368 14.576 30.096 15.392C29.824 16.1627 29.688 17.3867 29.688 19.064V52.792C29.688 54.424 29.824 55.648 30.096 56.464C30.368 57.28 30.8893 57.824 31.66 58.096C32.476 58.3227 33.6547 58.436 35.196 58.436H40.16C43.016 58.436 45.1693 58.0507 46.62 57.28C48.116 56.5093 49.1813 55.2627 49.816 53.54C50.496 51.772 50.9947 49.392 51.312 46.4H52.876C52.74 47.624 52.672 49.256 52.672 51.296C52.672 52.1573 52.6947 53.404 52.74 55.036C52.8307 56.6227 52.9667 58.2773 53.148 60C50.836 59.9093 48.2293 59.864 45.328 59.864C42.4267 59.8187 39.8427 59.796 37.576 59.796C36.5787 59.796 35.2867 59.796 33.7 59.796C32.1587 59.796 30.4813 59.8187 28.668 59.864C26.8547 59.864 25.0187 59.8867 23.16 59.932C21.3013 59.932 19.5333 59.9547 17.856 60V58.64C19.3973 58.5493 20.5533 58.368 21.324 58.096C22.14 57.824 22.684 57.28 22.956 56.464C23.228 55.648 23.364 54.424 23.364 52.792V19.064C23.364 17.3867 23.228 16.1627 22.956 15.392C22.684 14.576 22.14 14.032 21.324 13.76C20.5533 13.4427 19.3973 13.2613 17.856 13.216V11.856C19.5333 11.9013 21.3013 11.9467 23.16 11.992C25.0187 11.992 26.8547 12.0147 28.668 12.06C30.4813 12.06 32.1587 12.06 33.7 12.06C35.2867 12.06 36.5787 12.06 37.576 12.06C39.6613 12.06 42.0187 12.06 44.648 12.06C47.3227 12.0147 49.7027 11.9467 51.788 11.856ZM40.092 35.112C40.092 35.112 40.092 35.3387 40.092 35.792C40.092 36.2453 40.092 36.472 40.092 36.472H27.648C27.648 36.472 27.648 36.2453 27.648 35.792C27.648 35.3387 27.648 35.112 27.648 35.112H40.092ZM42.064 26.136C41.8827 28.72 41.792 30.692 41.792 32.052C41.8373 33.412 41.86 34.6587 41.86 35.792C41.86 36.9253 41.8827 38.172 41.928 39.532C41.9733 40.892 42.0867 42.864 42.268 45.448H40.704C40.5227 43.9973 40.296 42.592 40.024 41.232C39.7973 39.8267 39.2533 38.6933 38.392 37.832C37.576 36.9253 36.1707 36.472 34.176 36.472V35.112C35.672 35.112 36.8053 34.8173 37.576 34.228C38.392 33.5933 38.9813 32.8 39.344 31.848C39.7067 30.896 39.956 29.9213 40.092 28.924C40.228 27.8813 40.364 26.952 40.5 26.136H42.064Z" fill="white"></path>
</svg><style>@media (prefers-color-scheme: light) { :root { filter: none; } }
@media (prefers-color-scheme: dark) { :root { filter: none; } }
</style></svg>