<svg xmlns="http://www.w3.org/2000/svg" xmlns:xlink="http://www.w3.org/1999/xlink" fill="none" viewBox="0 0 280 1020">
  <g clip-path="url(#a)">
    <g stroke="#b8c1b2" clip-path="url(#b)">
      <path d="M486.5 144.5c199.83 0 362 204.5 362 457s-162.17 457-362 457c-199.82 0-362-204.5-362-457s162.18-457 362-457Z"/>
      <path d="M101.72 159.15c55.28-43.95 131.82-50.48 210.96-25.43 79.13 25.05 160.8 81.69 226.21 163.98 65.42 82.29 102.18 174.62 108.74 257.37 6.56 82.74-17.08 155.84-72.35 199.78-55.28 43.94-131.82 50.48-210.96 25.43-79.13-25.05-160.8-81.68-226.22-163.98S35.93 441.68 29.37 358.93c-6.56-82.74 17.08-155.84 72.35-199.78Z"/>
    </g>
  </g>
  <defs>
    <clipPath id="a">
      <path fill="#fff" d="M0 0h280v1020H0z"/>
    </clipPath>
    <clipPath id="b">
      <path fill="#fff" d="M-100-1h378v1060h-378z"/>
    </clipPath>
  </defs>
</svg>
