<svg xmlns="http://www.w3.org/2000/svg" xmlns:xlink="http://www.w3.org/1999/xlink" fill="none" viewBox="0 0 280 1020">
  <g clip-path="url(#a)">
    <g stroke="#b8c1b2" clip-path="url(#b)">
      <path d="M-258.1-31.04c223.24 3.5 401.45 263.62 397.86 581.2-3.6 317.59-187.64 572-410.88 568.49-223.25-3.52-401.46-263.62-397.86-581.21s187.63-572 410.88-568.48Z"/>
      <path d="M165.97 179.07c50.3 50.8 59.9 146.54 34.47 260.5C175 553.5 114.64 685.42 25.3 808.33c-89.33 122.92-190.66 213.49-282.26 260.59-91.64 47.11-173.37 50.64-223.69-.16s-59.9-146.53-34.47-260.5c25.42-113.92 85.8-245.85 175.13-368.76S-149.32 226-57.72 178.9c91.64-47.11 173.37-50.64 223.69.16Z"/>
    </g>
  </g>
  <defs>
    <clipPath id="a">
      <path fill="#fff" d="M0 0h280v1020H0z"/>
    </clipPath>
    <clipPath id="b">
      <path fill="#fff" d="M2-38h348v1293H2z"/>
    </clipPath>
  </defs>
</svg>
